<svg version="1.2" xmlns="http://www.w3.org/2000/svg" viewBox="0 0 53 63" width="53" height="63"><style>.a{fill:#fff}</style><path class="a" d="m37.3 29.1l1.4 5.1-12.4 12.3-12.3-12.3 1.4-5.1 10.9 10.8zm-10.9 6.8l-10-10 1.4-5.1 8.6 8.5 8.6-8.5 1.4 5.1zm-7.7-18.3l1.5-5.1 6.2 6.2 6.3-6.2 1.4 5.1-7.7 7.7z"/><path class="a" d="m44.8 44.9l-10.7 10.7q-0.3 0.2-0.6 0.2-0.4 0-0.6-0.2c-0.3-0.3-0.3-0.9 0-1.2l10.7-10.7c5.3-5.3 7.8-12.5 7.1-19.9-0.1-0.5 0.3-0.9 0.8-1 0.4 0 0.8 0.3 0.9 0.8 0.8 7.9-2 15.7-7.6 21.3zm-33-39.7c-0.2-0.4-0.1-0.9 0.3-1.1 10.3-6.6 24.1-5.1 32.7 3.6 2.8 2.8 4.9 6.1 6.3 9.9 0.1 0.4-0.1 0.9-0.6 1q-0.1 0.1-0.3 0.1c-0.3 0-0.6-0.2-0.8-0.6-1.2-3.5-3.1-6.6-5.8-9.2-8.1-8.1-20.9-9.6-30.6-3.4-0.4 0.2-0.9 0.1-1.2-0.3zm18.8 52.7c0.3 0.3 0.3 0.8 0 1.2l-3.8 3.8q-0.2 0.2-0.6 0.2-0.3 0-0.6-0.2l-18-18c-10.2-10.3-10.2-27 0-37.2 0.4-0.4 0.9-0.4 1.2 0 0.4 0.3 0.4 0.8 0 1.2-9.6 9.6-9.6 25.2 0 34.8l17.4 17.4 3.2-3.2c0.3-0.4 0.9-0.4 1.2 0z"/></svg>